<svg width="15" height="16" viewBox="0 0 15 16" fill="none" xmlns="http://www.w3.org/2000/svg">
<path d="M8.03557 9.64906L4.82129 10.2276L5.357 6.97049L11.4963 0.852632C11.5959 0.752209 11.7144 0.672501 11.845 0.618106C11.9755 0.563711 12.1156 0.535706 12.257 0.535706C12.3984 0.535706 12.5385 0.563711 12.669 0.618106C12.7996 0.672501 12.9181 0.752209 13.0177 0.852632L14.1534 1.98835C14.2539 2.08795 14.3336 2.20645 14.388 2.33701C14.4424 2.46758 14.4704 2.60762 14.4704 2.74906C14.4704 2.8905 14.4424 3.03054 14.388 3.16111C14.3336 3.29167 14.2539 3.41017 14.1534 3.50978L8.03557 9.64906Z" stroke="white" stroke-width="1.07143" stroke-linecap="round" stroke-linejoin="round"/>
<path d="M12.8576 10.1827V13.397C12.8576 13.6812 12.7447 13.9537 12.5437 14.1546C12.3428 14.3556 12.0703 14.4685 11.7861 14.4685H1.60756C1.3234 14.4685 1.05088 14.3556 0.849947 14.1546C0.649015 13.9537 0.536133 13.6812 0.536133 13.397V3.21846C0.536133 2.9343 0.649015 2.66178 0.849947 2.46085C1.05088 2.25992 1.3234 2.14703 1.60756 2.14703H4.82185" stroke="white" stroke-width="1.07143" stroke-linecap="round" stroke-linejoin="round"/>
</svg>
