<svg width="15" height="14" viewBox="0 0 15 14" fill="none" xmlns="http://www.w3.org/2000/svg">
<path d="M14.5264 0.652885C14.5077 0.164424 13.9671 -0.136673 13.5301 0.0618946L0.397099 6.2828C-0.0892196 6.49547 -0.142774 7.23043 0.31376 7.50738L3.39179 9.51983V12.8775C3.37378 13.4829 4.17364 13.8213 4.5928 13.3749L6.44919 11.5187L9.04727 13.2174C9.16316 13.2932 9.29736 13.3321 9.43249 13.3321C9.72141 13.3344 9.99508 13.1449 10.0925 12.872L14.4916 0.941077C14.5246 0.846999 14.5398 0.749818 14.5264 0.652885ZM10.462 3.07228L4.78465 8.74943L2.13446 7.01681L10.462 3.07228ZM4.79891 11.1791V10.4398L5.24599 10.7321L4.79891 11.1791ZM9.07796 11.5563L5.98782 9.53603L12.0626 3.46139L9.07796 11.5563Z" fill="white"/>
</svg>
