<svg width="22" height="22" viewBox="0 0 22 22" fill="none" xmlns="http://www.w3.org/2000/svg">
<path d="M14.9283 2.35547H17.2854C17.7022 2.35547 18.1019 2.52103 18.3966 2.81573C18.6913 3.11043 18.8569 3.51013 18.8569 3.9269V19.6412C18.8569 20.058 18.6913 20.4577 18.3966 20.7524C18.1019 21.0471 17.7022 21.2126 17.2854 21.2126H4.71401C4.29724 21.2126 3.89754 21.0471 3.60284 20.7524C3.30814 20.4577 3.14258 20.058 3.14258 19.6412V3.9269C3.14258 3.51013 3.30814 3.11043 3.60284 2.81573C3.89754 2.52103 4.29724 2.35547 4.71401 2.35547H7.07115" stroke="white" stroke-width="1.57143" stroke-linecap="round" stroke-linejoin="round"/>
<path d="M13.357 0.785156H8.64272C7.77484 0.785156 7.07129 1.48871 7.07129 2.35658V3.1423C7.07129 4.01018 7.77484 4.71373 8.64272 4.71373H13.357C14.2249 4.71373 14.9284 4.01018 14.9284 3.1423V2.35658C14.9284 1.48871 14.2249 0.785156 13.357 0.785156Z" stroke="white" stroke-width="1.57143" stroke-linecap="round" stroke-linejoin="round"/>
<path d="M11 9.42969V15.7154" stroke="white" stroke-width="1.57143" stroke-linecap="round" stroke-linejoin="round"/>
<path d="M14.1431 12.5703H7.85742" stroke="white" stroke-width="1.57143" stroke-linecap="round" stroke-linejoin="round"/>
</svg>
