<svg width="24" height="24" viewBox="0 0 24 24" fill="none" xmlns="http://www.w3.org/2000/svg">
<rect width="24" height="24" rx="12" fill="#AE0E0E"/>
<path d="M16.5174 11.5762H12.4233V7.48212C12.4233 7.24821 12.2337 7.05859 11.9998 7.05859C11.7659 7.05859 11.5762 7.24821 11.5762 7.48212V11.5762H7.48212C7.24821 11.5762 7.05859 11.7659 7.05859 11.9998C7.05859 12.2337 7.24821 12.4233 7.48212 12.4233H11.5762V16.5174C11.5762 16.7513 11.7659 16.9409 11.9998 16.9409C12.2337 16.9409 12.4233 16.7513 12.4233 16.5174V12.4233H16.5174C16.7513 12.4233 16.9409 12.2337 16.9409 11.9998C16.9409 11.7659 16.7513 11.5762 16.5174 11.5762Z" fill="white" stroke="white" stroke-width="0.484034"/>
</svg>
