<svg width="28" height="24" viewBox="0 0 28 24" fill="none" xmlns="http://www.w3.org/2000/svg">
<mask id="mask0_10735_404" style="mask-type:luminance" maskUnits="userSpaceOnUse" x="0" y="0" width="28" height="24">
<path d="M0 0H28V24H0V0Z" fill="white"/>
</mask>
<g mask="url(#mask0_10735_404)">
<path d="M22.7027 0.00634766C21.95 0.00634766 21.3088 0.538869 21.0655 1.2687H20.6153L19.9125 0.506893C19.8035 0.383528 19.6534 0.317031 19.4942 0.317031C19.2577 0.317031 19.0463 0.472372 18.9554 0.709109C18.8666 0.948208 18.9188 1.21947 19.0895 1.39952L20.7153 3.16242L20.0718 3.86009L19.9603 3.73691C19.5943 3.34483 18.9734 3.40406 18.5438 3.87245L15.2079 7.48709C14.7758 7.95566 14.7212 8.62881 15.0851 9.02579L15.1965 9.14661L14.5531 9.84428L14.2118 9.47437L14.6735 8.97401L13.8503 8.08138L13.5594 8.39697L12.0539 6.76471L12.636 6.13353L11.813 5.2409L11.0602 6.05704L10.5987 5.55649C10.4531 5.39134 10.2348 5.32484 10.0325 5.38389C9.82778 5.44058 9.66864 5.61318 9.61638 5.8352C9.56177 6.05468 9.62308 6.29123 9.77552 6.44912L10.237 6.94966L9.48438 7.7658L10.3075 8.65824L10.8897 8.02706L12.3951 9.65933L12.2244 9.84428L11.8834 9.47437C11.4309 8.98382 10.6896 8.98382 10.237 9.47437L5.23904 14.8939C4.78423 15.3846 4.78423 16.1884 5.23904 16.6791L6.74433 18.3114C6.97182 18.5579 7.26966 18.6811 7.5675 18.6811C7.86534 18.6811 8.16335 18.5579 8.39067 18.3114L13.3888 12.8919C13.8435 12.4012 13.8435 11.5974 13.3888 11.1066L13.0476 10.7369L13.3888 10.367L20.2037 17.7565L21.0268 16.8641C20.7948 16.6125 20.7948 16.2229 21.0268 15.9715L26.3661 10.182C26.5979 9.93058 26.9572 9.93058 27.1891 10.182L28.0122 9.2896L27.5712 8.81122C27.7576 8.73473 27.8963 8.55976 27.9372 8.34774C27.9782 8.13553 27.9146 7.91623 27.7712 7.7658L27.1891 7.13462C27.08 7.01125 26.9299 6.94476 26.7708 6.94221C26.5297 6.94476 26.3114 7.10737 26.2272 7.35391L22.9209 3.77143C23.5781 3.67768 24.1217 3.18949 24.34 2.53124H25.6132V1.2687H24.34C24.0966 0.538869 23.4553 0.00634766 22.7027 0.00634766ZM22.7027 1.2687C23.0302 1.2687 23.2848 1.54487 23.2848 1.90006C23.2848 2.25508 23.0302 2.53124 22.7027 2.53124C22.3752 2.53124 22.1206 2.25508 22.1206 1.90006C22.1206 1.54487 22.3752 1.2687 22.7027 1.2687ZM21.5384 4.05504L23.6258 6.31848L22.9824 7.01616L22.871 6.89298C22.5048 6.5009 21.884 6.56013 21.4543 7.02851L18.1184 10.6432C17.6864 11.1117 17.6318 11.7847 17.9957 12.1817L18.1071 12.3025L17.4636 13.0004L15.3762 10.7369L16.0196 10.0391L16.1334 10.1624C16.2949 10.335 16.5063 10.4213 16.7291 10.4213C17.0112 10.4213 17.3112 10.2881 17.5501 10.0267L20.8836 6.40969C21.3156 5.94367 21.3702 5.26798 21.0086 4.87354L20.895 4.75271L21.5384 4.05504ZM24.449 7.21093L25.6633 8.52761L19.5009 15.2095L18.2868 13.893L18.9302 13.1951L19.044 13.3185C19.2055 13.4911 19.4169 13.5774 19.6398 13.5774C19.9217 13.5774 20.2219 13.4442 20.4606 13.1828L23.7942 9.56576C24.2262 9.09974 24.2808 8.42404 23.9192 8.0296L23.8056 7.90878L24.449 7.21093ZM4.99798 17.3103L2.32846 20.2049L3.49269 21.4675L6.16221 18.5727L4.99798 17.3103ZM2.20785 20.9669L1.16423 22.0986L0 23.9922L1.74635 22.7298L2.78997 21.5981L2.20785 20.9669Z" fill="white"/>
</g>
</svg>
