<svg width="18" height="18" viewBox="0 0 18 18" fill="none" xmlns="http://www.w3.org/2000/svg">
<g clip-path="url(#clip0_11259_3849)">
<path d="M7.63933 1.51464C8.17338 0.980523 9.0217 0.952412 9.58877 1.4303L9.68058 1.51464L11.0514 2.88575H12.9901C13.7511 2.88575 14.3745 3.47468 14.4296 4.22167L14.4335 4.32941V6.26845L15.8044 7.63955C16.3384 8.1737 16.3666 9.02219 15.8887 9.58942L15.8044 9.68126L14.4335 11.0524V12.9914C14.4335 13.7525 13.8447 14.376 13.0979 14.4311L12.9901 14.4351H11.0514L9.68058 15.8061C9.1466 16.3403 8.29827 16.3684 7.73114 15.8905L7.63933 15.8061L6.26848 14.4351H4.32977C3.56884 14.4351 2.94544 13.8461 2.89034 13.0992L2.88638 12.9914V11.0523L1.51553 9.68126C0.981521 9.14711 0.953415 8.29862 1.43122 7.73139L1.51554 7.63955L2.88638 6.26848V4.32941C2.88638 3.56834 3.4752 2.94482 4.22205 2.88971L4.32977 2.88575H6.26848L7.63933 1.51464ZM8.65995 2.53546L7.28909 3.90657C7.0485 4.14723 6.73168 4.29415 6.39539 4.32383L6.26848 4.32941H4.32977V6.26848C4.32977 6.60882 4.20962 6.93677 3.9928 7.19561L3.90701 7.28932L2.53617 8.66044L3.90701 10.0315C4.14763 10.2722 4.29452 10.589 4.32419 10.9254L4.32977 11.0523V12.9914H6.26848C6.60876 12.9914 6.93665 13.1116 7.1954 13.3284L7.28909 13.4142L8.65995 14.7853L10.0308 13.4142C10.2714 13.1736 10.5883 13.0267 10.9245 12.997L11.0514 12.9914H12.9901V11.0524C12.9901 10.712 13.1103 10.384 13.3271 10.1253L13.4129 10.0316L14.7838 8.66044L13.4129 7.28925C13.1723 7.04862 13.0254 6.73175 12.9957 6.39539L12.9901 6.26845V4.32941H11.0514C10.7112 4.32941 10.3833 4.20924 10.1245 3.99238L10.0308 3.90657L8.65995 2.53546ZM10.8823 6.48232C11.1642 6.20043 11.6212 6.20043 11.903 6.48232C12.1632 6.74253 12.1832 7.15198 11.963 7.43513L11.903 7.50313L8.38044 11.0264C8.09254 11.3143 7.63856 11.3348 7.327 11.0881L7.25777 11.0264L5.52266 9.29096C5.24082 9.00909 5.24082 8.55202 5.52266 8.27015C5.78282 8.00995 6.19219 7.98994 6.4753 8.2101L6.54329 8.27015L7.8191 9.54613L10.8823 6.48232Z" fill="#11B95C"/>
</g>
<defs>
<clipPath id="clip0_11259_3849">
<rect width="17.3207" height="17.324" fill="white"/>
</clipPath>
</defs>
</svg>
