<svg width="28" height="27" viewBox="0 0 28 27" fill="none" xmlns="http://www.w3.org/2000/svg">
<path d="M8.66699 12.375H17.3337" stroke="#A49A99" stroke-width="1.625" stroke-linecap="round"/>
<path d="M8.66699 16.1641H14.6253" stroke="#A49A99" stroke-width="1.625" stroke-linecap="round"/>
<path d="M18.417 4.61337C16.8235 3.69161 14.9735 3.16406 13.0003 3.16406C7.01724 3.16406 2.16699 8.01431 2.16699 13.9974C2.16699 15.7304 2.57391 17.3683 3.29741 18.8209C3.48968 19.2069 3.55367 19.6482 3.44221 20.0647L2.79696 22.4763C2.51685 23.5231 3.47459 24.4808 4.52145 24.2008L6.933 23.5555C7.34958 23.4441 7.7908 23.5081 8.17682 23.7003C9.62939 24.4238 11.2673 24.8307 13.0003 24.8307C18.9834 24.8307 23.8337 19.9804 23.8337 13.9974C23.8337 12.0242 23.3061 10.1742 22.3844 8.58073" stroke="#A49A99" stroke-width="1.625" stroke-linecap="round"/>
<circle cx="23" cy="5" r="5" fill="#F49E00"/>
</svg>
