<svg width="26" height="26" viewBox="0 0 26 26" fill="none" xmlns="http://www.w3.org/2000/svg">
<path d="M8.66699 11.375H17.3337" stroke="#A49A99" stroke-width="1.625" stroke-linecap="round"/>
<path d="M8.66699 15.1641H14.6253" stroke="#A49A99" stroke-width="1.625" stroke-linecap="round"/>
<path d="M18.417 3.61337C16.8235 2.69161 14.9735 2.16406 13.0003 2.16406C7.01724 2.16406 2.16699 7.01431 2.16699 12.9974C2.16699 14.7304 2.57391 16.3683 3.29741 17.8209C3.48968 18.2069 3.55367 18.6482 3.44221 19.0647L2.79696 21.4763C2.51685 22.5231 3.47459 23.4808 4.52145 23.2008L6.933 22.5555C7.34958 22.4441 7.7908 22.5081 8.17682 22.7003C9.62939 23.4238 11.2673 23.8307 13.0003 23.8307C18.9834 23.8307 23.8337 18.9804 23.8337 12.9974C23.8337 11.0242 23.3061 9.17417 22.3844 7.58073" stroke="#A49A99" stroke-width="1.625" stroke-linecap="round"/>
</svg>
