<svg width="14" height="14" viewBox="0 0 14 14" fill="none" xmlns="http://www.w3.org/2000/svg">
<rect width="14" height="14" rx="7" fill="white"/>
<path d="M3.5 4.9585H10.5" stroke="#AE0E0E" stroke-width="0.583333" stroke-linecap="round" stroke-linejoin="round"/>
<path d="M4.375 4.9585H9.625V10.2085C9.625 10.3632 9.56354 10.5116 9.45415 10.621C9.34475 10.7304 9.19638 10.7918 9.04167 10.7918H4.95833C4.80362 10.7918 4.65525 10.7304 4.54585 10.621C4.43646 10.5116 4.375 10.3632 4.375 10.2085V4.9585Z" stroke="#AE0E0E" stroke-width="0.583333" stroke-linecap="round" stroke-linejoin="round"/>
<path d="M5.54199 4.9585V4.66683C5.54199 4.28006 5.69564 3.90912 5.96913 3.63563C6.24262 3.36214 6.61355 3.2085 7.00033 3.2085C7.3871 3.2085 7.75803 3.36214 8.03152 3.63563C8.30501 3.90912 8.45866 4.28006 8.45866 4.66683V4.9585" stroke="#AE0E0E" stroke-width="0.583333" stroke-linecap="round" stroke-linejoin="round"/>
<path d="M6.125 6.125V9.33333" stroke="#AE0E0E" stroke-width="0.583333" stroke-linecap="round" stroke-linejoin="round"/>
<path d="M7.875 6.125V9.33333" stroke="#AE0E0E" stroke-width="0.583333" stroke-linecap="round" stroke-linejoin="round"/>
</svg>
