<svg width="14" height="14" viewBox="0 0 14 14" fill="none" xmlns="http://www.w3.org/2000/svg">
<path d="M1 11.9004H11.6002" stroke="#A49A99" stroke-width="0.963653" stroke-linecap="round" stroke-linejoin="round"/>
<path d="M5.24838 10.1603L2.35742 10.6807L2.83925 7.75116L9.32463 1.28505C9.41422 1.19473 9.5208 1.12303 9.63823 1.07411C9.75566 1.02519 9.88161 1 10.0088 1C10.136 1 10.262 1.02519 10.3794 1.07411C10.4969 1.12303 10.6034 1.19473 10.693 1.28505L11.7145 2.30652C11.8048 2.3961 11.8765 2.50268 11.9254 2.62011C11.9744 2.73754 11.9995 2.8635 11.9995 2.99071C11.9995 3.11793 11.9744 3.24388 11.9254 3.36131C11.8765 3.47874 11.8048 3.58532 11.7145 3.67491L5.24838 10.1603Z" stroke="#A49A99" stroke-width="0.963653" stroke-linecap="round" stroke-linejoin="round"/>
</svg>
