<svg width="10" height="10" viewBox="0 0 10 10" fill="none" xmlns="http://www.w3.org/2000/svg">
<g clip-path="url(#clip0_10736_1203)">
<path d="M7.17829 5C7.17823 5.42228 7.05341 5.83513 6.81949 6.18671C6.58557 6.53828 6.25299 6.81291 5.86351 6.97609C5.47403 7.13928 5.04502 7.18375 4.63035 7.10392C4.21568 7.02409 3.83384 6.82352 3.53278 6.5274C3.23172 6.23128 3.02487 5.8528 2.9382 5.43951C2.85153 5.02622 2.8889 4.59653 3.04563 4.20441C3.20235 3.81228 3.47144 3.47521 3.8191 3.23551C4.16676 2.99581 4.5775 2.86418 4.99972 2.85714C5.28412 2.8524 5.56661 2.90432 5.83073 3.00989C6.09485 3.11545 6.33531 3.27254 6.53809 3.472C6.74087 3.67146 6.90191 3.90929 7.01183 4.17163C7.12175 4.43397 7.17833 4.71556 7.17829 5V5Z" stroke="#A49A99" stroke-width="0.714286" stroke-linecap="round" stroke-linejoin="round"/>
<path d="M7.17818 5V5.92858C7.17818 8.42143 11.0853 6.07143 9.03533 2.68572C8.62254 1.98075 8.03338 1.39535 7.32579 0.987077C6.6182 0.578803 5.81653 0.361711 4.99961 0.357147C4.3133 0.359267 3.636 0.513515 3.01645 0.808788C2.3969 1.10406 1.85052 1.53302 1.41663 2.06478C0.982748 2.59654 0.672149 3.21787 0.507194 3.88407C0.342238 4.55026 0.327029 5.24474 0.462661 5.91752C0.598293 6.5903 0.881392 7.22464 1.29158 7.77489C1.70177 8.32513 2.22885 8.7776 2.83488 9.09971C3.4409 9.42182 4.11081 9.60557 4.79637 9.63774C5.48193 9.6699 6.16609 9.54968 6.79961 9.28572" stroke="#A49A99" stroke-width="0.714286" stroke-linecap="round" stroke-linejoin="round"/>
</g>
<defs>
<clipPath id="clip0_10736_1203">
<rect width="10" height="10" fill="white"/>
</clipPath>
</defs>
</svg>
