<svg width="22" height="22" viewBox="0 0 22 22" fill="none" xmlns="http://www.w3.org/2000/svg">
<g clip-path="url(#clip0_10736_35)">
<path d="M7.857 7.85715C9.80972 7.85715 11.3927 6.27416 11.3927 4.32144C11.3927 2.36871 9.80972 0.785721 7.857 0.785721C5.90428 0.785721 4.32129 2.36871 4.32129 4.32144C4.32129 6.27416 5.90428 7.85715 7.857 7.85715Z" stroke="white" stroke-width="1.57143" stroke-linecap="round" stroke-linejoin="round"/>
<path d="M7.07087 19.6429H0.785156V17.2857C0.797666 16.088 1.11355 14.9129 1.7033 13.8703C2.29305 12.8278 3.13743 11.9517 4.15756 11.3239C5.17769 10.6961 6.34029 10.3372 7.53677 10.2805C8.73325 10.2239 9.92457 10.4714 10.9994 11" stroke="white" stroke-width="1.57143" stroke-linecap="round" stroke-linejoin="round"/>
<path d="M16.5 11.7857V21.2143" stroke="white" stroke-width="1.57143" stroke-linecap="round" stroke-linejoin="round"/>
<path d="M11.7852 16.5H21.2137" stroke="white" stroke-width="1.57143" stroke-linecap="round" stroke-linejoin="round"/>
</g>
<defs>
<clipPath id="clip0_10736_35">
<rect width="22" height="22" fill="white"/>
</clipPath>
</defs>
</svg>
