<svg width="29" height="29" viewBox="0 0 29 29" fill="none" xmlns="http://www.w3.org/2000/svg">
<g clip-path="url(#clip0_10869_3257)">
<path d="M3.12723 27.9648L25.9129 27.9648C27.057 27.9648 27.9844 27.0374 27.9844 25.8934L27.9844 3.1077C27.9844 1.96368 27.057 1.03627 25.9129 1.03627L3.12723 1.03627C1.98321 1.03627 1.0558 1.96368 1.0558 3.1077L1.0558 25.8934C1.0558 27.0374 1.98321 27.9648 3.12723 27.9648Z" stroke="white" stroke-width="2.07143" stroke-linecap="round" stroke-linejoin="round"/>
<path d="M19.1602 13.4648C21.1622 13.4648 22.7852 11.8419 22.7852 9.83984C22.7852 7.83781 21.1622 6.21484 19.1602 6.21484C17.1581 6.21484 15.5352 7.83781 15.5352 9.83984C15.5352 11.8419 17.1581 13.4648 19.1602 13.4648Z" stroke="white" stroke-width="2.07143" stroke-linecap="round" stroke-linejoin="round"/>
<path d="M19.4709 27.9637C18.8039 24.4112 16.8964 21.2112 14.0887 18.9348C11.2811 16.6583 7.75596 15.4534 4.1423 15.5351C3.0997 15.5324 2.05923 15.6295 1.03516 15.8251" stroke="white" stroke-width="2.07143" stroke-linecap="round" stroke-linejoin="round"/>
<path d="M27.9639 20.529C26.2955 19.9656 24.5463 19.6787 22.7853 19.6797C20.5563 19.6749 18.3499 20.126 16.3018 21.0054" stroke="white" stroke-width="2.07143" stroke-linecap="round" stroke-linejoin="round"/>
</g>
<defs>
<clipPath id="clip0_10869_3257">
<rect width="29" height="29" fill="white"/>
</clipPath>
</defs>
</svg>
