<svg width="10" height="10" viewBox="0 0 10 10" fill="none" xmlns="http://www.w3.org/2000/svg">
<g clip-path="url(#clip0_10736_1363)">
<path d="M8.57171 5.35715V3.92858C8.57171 3.73914 8.49645 3.55746 8.3625 3.4235C8.22854 3.28955 8.04686 3.21429 7.85742 3.21429H1.07171C0.882267 3.21429 0.700586 3.28955 0.566631 3.4235C0.432677 3.55746 0.357422 3.73914 0.357422 3.92858V8.92858C0.357422 9.11802 0.432677 9.2997 0.566631 9.43366C0.700586 9.56761 0.882267 9.64287 1.07171 9.64287H7.85742C8.04686 9.64287 8.22854 9.56761 8.3625 9.43366C8.49645 9.2997 8.57171 9.11802 8.57171 8.92858V7.14287" stroke="#A49A99" stroke-width="0.714286" stroke-linecap="round" stroke-linejoin="round"/>
<path d="M2.74316 1.42881L6.79316 0.371668C6.83867 0.358845 6.88631 0.355376 6.9332 0.361471C6.98009 0.367566 7.02525 0.383097 7.06597 0.407128C7.10669 0.43116 7.14212 0.463192 7.17012 0.501293C7.19812 0.539393 7.21811 0.582772 7.22888 0.628811L7.42888 1.42881" stroke="#A49A99" stroke-width="0.714286" stroke-linecap="round" stroke-linejoin="round"/>
<path d="M9.28641 5.35715H7.5007C7.30345 5.35715 7.14355 5.51705 7.14355 5.71429V6.78572C7.14355 6.98296 7.30345 7.14286 7.5007 7.14286H9.28641C9.48366 7.14286 9.64355 6.98296 9.64355 6.78572V5.71429C9.64355 5.51705 9.48366 5.35715 9.28641 5.35715Z" stroke="#A49A99" stroke-width="0.714286" stroke-linecap="round" stroke-linejoin="round"/>
</g>
<defs>
<clipPath id="clip0_10736_1363">
<rect width="10" height="10" fill="white"/>
</clipPath>
</defs>
</svg>
