<svg width="10" height="10" viewBox="0 0 10 10" fill="none" xmlns="http://www.w3.org/2000/svg">
<g clip-path="url(#clip0_10736_1347)">
<path d="M8.2147 3.57143C8.2147 5.35 5.00042 9.64286 5.00042 9.64286C5.00042 9.64286 1.78613 5.35 1.78613 3.57143C1.78613 2.71895 2.12478 1.90139 2.72758 1.29859C3.33037 0.695794 4.14794 0.357147 5.00042 0.357147C5.8529 0.357147 6.67047 0.695794 7.27326 1.29859C7.87606 1.90139 8.2147 2.71895 8.2147 3.57143V3.57143Z" stroke="#A49A99" stroke-width="0.714286" stroke-linecap="round" stroke-linejoin="round"/>
<path d="M5.00014 4.64286C5.59187 4.64286 6.07157 4.16316 6.07157 3.57143C6.07157 2.97969 5.59187 2.5 5.00014 2.5C4.40841 2.5 3.92871 2.97969 3.92871 3.57143C3.92871 4.16316 4.40841 4.64286 5.00014 4.64286Z" stroke="#A49A99" stroke-width="0.714286" stroke-linecap="round" stroke-linejoin="round"/>
</g>
<defs>
<clipPath id="clip0_10736_1347">
<rect width="10" height="10" fill="white"/>
</clipPath>
</defs>
</svg>
