<svg width="10" height="10" viewBox="0 0 10 10" fill="none" xmlns="http://www.w3.org/2000/svg">
<g clip-path="url(#clip0_10736_1360)">
<path d="M9.8405 0.90889C9.82807 0.583249 9.46763 0.382518 9.17635 0.514896L0.420983 4.66216C0.0967702 4.80395 0.0610671 5.29392 0.365423 5.47855L2.41745 6.82018V9.05863C2.40544 9.46221 2.93868 9.68786 3.21812 9.39023L4.45571 8.15279L6.18776 9.28521C6.26502 9.33574 6.35449 9.3617 6.44457 9.3617C6.63719 9.36326 6.81964 9.23691 6.8846 9.05496L9.81731 1.10102C9.8393 1.0383 9.84947 0.973511 9.8405 0.90889ZM7.1309 2.52182L3.34602 6.30658L1.57922 5.15151L7.1309 2.52182ZM3.35552 7.92634V7.43349L3.65358 7.62835L3.35552 7.92634ZM6.20822 8.17781L4.14813 6.83099L8.19799 2.78122L6.20822 8.17781Z" fill="#A49A99"/>
</g>
<defs>
<clipPath id="clip0_10736_1360">
<rect width="10" height="10" fill="white"/>
</clipPath>
</defs>
</svg>
