<svg width="10" height="10" viewBox="0 0 10 10" fill="none" xmlns="http://www.w3.org/2000/svg">
<g clip-path="url(#clip0_10867_2829)">
<path d="M9.8405 0.909866C9.82807 0.584226 9.46763 0.383494 9.17635 0.515872L0.420983 4.66314C0.0967702 4.80492 0.0610671 5.2949 0.365423 5.47953L2.41745 6.82116V9.0596C2.40544 9.46318 2.93868 9.68884 3.21812 9.39121L4.45571 8.15376L6.18776 9.28618C6.26502 9.33672 6.35449 9.36268 6.44457 9.36268C6.63719 9.36423 6.81964 9.23789 6.8846 9.05593L9.81731 1.10199C9.8393 1.03928 9.84947 0.974488 9.8405 0.909866ZM7.1309 2.52279L3.34602 6.30756L1.57922 5.15248L7.1309 2.52279ZM3.35552 7.92732V7.43446L3.65358 7.62932L3.35552 7.92732ZM6.20822 8.17879L4.14813 6.83196L8.19799 2.7822L6.20822 8.17879Z" fill="#A49A99"/>
</g>
<defs>
<clipPath id="clip0_10867_2829">
<rect width="10" height="10" fill="white"/>
</clipPath>
</defs>
</svg>
