<svg width="14" height="14" viewBox="0 0 14 14" fill="none" xmlns="http://www.w3.org/2000/svg">
<path d="M10.4884 1.48047C10.608 1.48047 10.7191 1.53816 10.7881 1.63339L10.815 1.67645L12.7926 5.38457L12.8138 5.43511L12.8195 5.45377L12.8279 5.49192L12.8325 5.53536L12.8315 5.58442L12.8329 5.55248C12.8329 5.60436 12.8222 5.65377 12.8029 5.69863L12.7887 5.72805L12.7687 5.76092L12.7426 5.79473L7.20603 12.1934C7.15662 12.2598 7.08895 12.3035 7.01546 12.3245L6.98683 12.3315L6.93876 12.3381L6.90983 12.3392L6.86018 12.3358L6.81818 12.3279L6.76719 12.3111L6.75451 12.3051C6.70994 12.2854 6.66897 12.2561 6.63471 12.2175L1.07126 5.78757L1.04061 5.74434L1.01696 5.69838L0.999841 5.64937L0.988419 5.58466L0.988281 5.52178L0.995616 5.47307L1.00035 5.45372L1.01708 5.40629L1.03058 5.3783L3.00489 1.67645C3.06118 1.5709 3.16437 1.50001 3.28087 1.48394L3.33152 1.48047H10.4884ZM8.83785 5.92267H4.98054L6.91043 10.9374L8.83785 5.92267ZM4.18787 5.92267H2.16618L5.80531 10.127L4.18787 5.92267ZM11.6522 5.92267H9.63201L8.01653 10.1235L11.6522 5.92267ZM4.94747 2.22034H3.55313L1.97319 5.1823H4.15727L4.94747 2.22034ZM8.10587 2.22034H5.7135L4.9233 5.1823H8.8956L8.10587 2.22034ZM10.2663 2.22034H8.8719L9.66212 5.1823H11.8452L10.2663 2.22034Z" fill="#AE0E0E"/>
</svg>
