<svg width="46" height="46" viewBox="0 0 46 46" fill="none" xmlns="http://www.w3.org/2000/svg">
<g clip-path="url(#clip0_10772_2017)">
<path d="M4.92871 27.9238V42.7095C4.92871 43.1453 5.1018 43.5631 5.40989 43.8712C5.71799 44.1793 6.13586 44.3524 6.57157 44.3524H39.4287C39.8644 44.3524 40.2823 44.1793 40.5904 43.8712C40.8985 43.5631 41.0716 43.1453 41.0716 42.7095V27.9238" stroke="white" stroke-width="3.28571" stroke-linecap="round" stroke-linejoin="round"/>
<path d="M26.2861 27.9238V44.3524" stroke="white" stroke-width="3.28571" stroke-linecap="round" stroke-linejoin="round"/>
<path d="M4.92871 32.8516H26.2859" stroke="white" stroke-width="3.28571" stroke-linecap="round" stroke-linejoin="round"/>
<path d="M1.64258 13.1436L6.57115 1.64355H39.4283L44.3569 13.1436H1.64258Z" stroke="white" stroke-width="3.28571" stroke-linecap="round" stroke-linejoin="round"/>
<path d="M15.6078 13.1436V16.4293C15.6078 18.1721 14.9154 19.8436 13.6831 21.076C12.4507 22.3084 10.7792 23.0007 9.03635 23.0007H8.11635C6.3735 23.0007 4.70203 22.3084 3.46965 21.076C2.23727 19.8436 1.54492 18.1721 1.54492 16.4293V13.1436" stroke="white" stroke-width="3.28571" stroke-linecap="round" stroke-linejoin="round"/>
<path d="M30.3931 13.1436V16.4293C30.3931 18.1721 29.7008 19.8436 28.4684 21.076C27.236 22.3084 25.5646 23.0007 23.8217 23.0007H22.1789C20.436 23.0007 18.7645 22.3084 17.5321 21.076C16.2998 19.8436 15.6074 18.1721 15.6074 16.4293V13.1436" stroke="white" stroke-width="3.28571" stroke-linecap="round" stroke-linejoin="round"/>
<path d="M44.3569 13.1436V16.4293C44.3569 18.1721 43.6645 19.8436 42.4321 21.076C41.1998 22.3084 39.5283 23.0007 37.7854 23.0007H36.964C35.2212 23.0007 33.5497 22.3084 32.3173 21.076C31.0849 19.8436 30.3926 18.1721 30.3926 16.4293V13.1436" stroke="white" stroke-width="3.28571" stroke-linecap="round" stroke-linejoin="round"/>
</g>
<defs>
<clipPath id="clip0_10772_2017">
<rect width="46" height="46" fill="white"/>
</clipPath>
</defs>
</svg>
