<svg width="12" height="11" viewBox="0 0 12 11" fill="none" xmlns="http://www.w3.org/2000/svg">
<path d="M9.50009 0C9.61973 0 9.73084 0.0576893 9.79984 0.152925L9.82674 0.19598L11.8044 3.9041L11.8255 3.95464L11.8313 3.9733L11.8396 4.01145L11.8442 4.05489L11.8432 4.10395L11.8446 4.07201C11.8446 4.12389 11.8339 4.1733 11.8146 4.21816L11.8004 4.24758L11.7804 4.28045L11.7544 4.31426L6.21775 10.713C6.16834 10.7793 6.10067 10.823 6.02718 10.844L5.99855 10.851L5.95048 10.8577L5.92155 10.8587L5.8719 10.8553L5.8299 10.8474L5.77891 10.8307L5.76622 10.8246C5.72165 10.805 5.68069 10.7756 5.64643 10.737L0.0829802 4.30711L0.0523241 4.26387L0.0286768 4.21792L0.0115595 4.1689L0.000138154 4.1042L0 4.04131L0.00733452 3.9926L0.0120679 3.97325L0.0288002 3.92582L0.0422947 3.89783L2.0166 0.19598C2.0729 0.0904283 2.17608 0.0195457 2.29259 0.0034748L2.34323 0H9.50009ZM7.84957 4.4422H3.99226L5.92215 9.45695L7.84957 4.4422ZM3.19959 4.4422H1.1779L4.81703 8.64649L3.19959 4.4422ZM10.6639 4.4422H8.64373L7.02825 8.64304L10.6639 4.4422ZM3.95919 0.739873H2.56485L0.984909 3.70183H3.16899L3.95919 0.739873ZM7.11759 0.739873H4.72522L3.93502 3.70183H7.90732L7.11759 0.739873ZM9.27798 0.739873H7.88362L8.67384 3.70183H10.8569L9.27798 0.739873Z" fill="#ECA202"/>
</svg>
