<svg width="48" height="48" viewBox="0 0 48 48" fill="none" xmlns="http://www.w3.org/2000/svg">
<g clip-path="url(#clip0_10772_2001)">
<path d="M3.12026 43.0631L1.71454 19.0631C1.68531 18.8213 1.70793 18.5761 1.78089 18.3438C1.85385 18.1114 1.97549 17.8973 2.13768 17.7156C2.29988 17.5339 2.49893 17.3889 2.72156 17.2902C2.94419 17.1915 3.1853 17.1414 3.42883 17.1431H19.2345C19.6188 17.1455 19.9916 17.2744 20.2953 17.5099C20.599 17.7454 20.8166 18.0744 20.9145 18.446L22.286 24.0003H44.5717C44.8088 23.9995 45.0435 24.0479 45.261 24.1425C45.4785 24.2371 45.6739 24.3758 45.8351 24.5498C45.9962 24.7238 46.1194 24.9294 46.197 25.1535C46.2747 25.3775 46.3049 25.6153 46.286 25.8517L44.9488 42.9945C44.8797 43.8555 44.4882 44.6587 43.8526 45.2435C43.2169 45.8283 42.384 46.1516 41.5203 46.1488H6.54883C5.69591 46.1531 4.87203 45.8393 4.23805 45.2687C3.60408 44.6982 3.20554 43.9118 3.12026 43.0631Z" stroke="white" stroke-width="3.42857" stroke-linecap="round" stroke-linejoin="round"/>
<path d="M12 10.2863V3.42913C12 2.97447 12.1806 2.53844 12.5021 2.21695C12.8236 1.89546 13.2596 1.71484 13.7143 1.71484H42.8571C43.3118 1.71484 43.7478 1.89546 44.0693 2.21695C44.3908 2.53844 44.5714 2.97447 44.5714 3.42913V17.1434" stroke="white" stroke-width="3.42857" stroke-linecap="round" stroke-linejoin="round"/>
<path d="M25.7148 10.2852H36.0006" stroke="white" stroke-width="3.42857" stroke-linecap="round" stroke-linejoin="round"/>
</g>
<defs>
<clipPath id="clip0_10772_2001">
<rect width="48" height="48" fill="white"/>
</clipPath>
</defs>
</svg>
