<svg width="18" height="18" viewBox="0 0 18 18" fill="none" xmlns="http://www.w3.org/2000/svg">
<path d="M10.6941 6.3905C11.4 6.3905 11.9722 5.81827 11.9722 5.11239C11.9722 4.40652 11.4 3.83429 10.6941 3.83429C9.98824 3.83429 9.41602 4.40652 9.41602 5.11239C9.41602 5.81827 9.98824 6.3905 10.6941 6.3905Z" stroke="white" stroke-width="1.2781" stroke-linecap="round" stroke-linejoin="round"/>
<path d="M5.58143 12.781C5.93437 12.781 6.22049 12.4949 6.22049 12.142C6.22049 11.789 5.93437 11.5029 5.58143 11.5029C5.2285 11.5029 4.94238 11.789 4.94238 12.142C4.94238 12.4949 5.2285 12.781 5.58143 12.781Z" stroke="white" stroke-width="1.2781" stroke-linecap="round" stroke-linejoin="round"/>
<path d="M5.58181 8.30764C6.28769 8.30764 6.85992 7.73542 6.85992 7.02954C6.85992 6.32366 6.28769 5.75143 5.58181 5.75143C4.87594 5.75143 4.30371 6.32366 4.30371 7.02954C4.30371 7.73542 4.87594 8.30764 5.58181 8.30764Z" stroke="white" stroke-width="1.2781" stroke-linecap="round" stroke-linejoin="round"/>
<path d="M11.9973 15.6951C11.983 15.4472 11.8969 15.2088 11.7493 15.0091C11.6018 14.8093 11.3993 14.6569 11.1665 14.5704C10.5884 14.3804 10.0971 13.9904 9.78083 13.4705C9.46457 12.9507 9.34413 12.335 9.44117 11.7343C9.53821 11.1336 9.84636 10.5872 10.3102 10.1934C10.7741 9.79954 11.3632 9.58409 11.9717 9.58577H14.3618C14.7717 9.58691 15.1759 9.48945 15.5402 9.3016C15.9046 9.11376 16.2184 8.84104 16.4553 8.50645C16.6921 8.17187 16.845 7.78523 16.9011 7.37915C16.9571 6.97308 16.9147 6.55947 16.7774 6.17323C16.269 4.73788 15.376 3.46985 14.1958 2.50769C13.0156 1.54552 11.5936 0.926234 10.0853 0.717481C8.57694 0.508728 7.04024 0.718543 5.64307 1.324C4.2459 1.92946 3.04201 2.90727 2.16293 4.1506C1.28385 5.39393 0.763401 6.85495 0.658436 8.37405C0.553471 9.89314 0.868033 11.4119 1.56775 12.7643C2.26747 14.1167 3.32544 15.2508 4.62605 16.0427C5.92667 16.8345 7.4199 17.2537 8.94262 17.2544C9.6946 17.2565 10.4432 17.1532 11.1665 16.9476C11.4322 16.8732 11.6623 16.7058 11.8148 16.4758C11.9673 16.2459 12.032 15.9688 11.9973 15.6951V15.6951Z" stroke="white" stroke-width="1.2781" stroke-linecap="round" stroke-linejoin="round"/>
</svg>
