<svg width="24" height="25" viewBox="0 0 24 25" fill="none" xmlns="http://www.w3.org/2000/svg">
<path d="M7.16473 10.4987H9.54042M7.16473 12.9944H15.8397M17.1176 6.30996C16.3874 5.57924 15.5204 4.99958 14.5662 4.60408C13.6119 4.20859 12.589 4.005 11.556 4.005C10.523 4.005 9.50013 4.20859 8.54584 4.60408C7.59155 4.99958 6.72456 5.57924 5.9944 6.30996C5.26368 7.04012 4.68401 7.90712 4.28851 8.86141C3.89302 9.8157 3.68945 10.8386 3.68945 11.8716C3.68945 12.9046 3.89302 13.9274 4.28851 14.8817C4.68401 15.836 5.26368 16.703 5.9944 17.4332C7.31098 18.7462 9.05021 19.5503 10.9034 19.7028C12.7566 19.8552 14.6038 19.3462 16.1173 18.2659L19.2857 19.9914C19.3374 20.0198 19.397 20.0306 19.4554 20.0223C19.5138 20.0139 19.5679 19.9869 19.6096 19.9452C19.6513 19.9035 19.6784 19.8493 19.6867 19.7909C19.6951 19.7325 19.6842 19.673 19.6558 19.6213L17.9303 16.4529C19.0185 14.94 19.5341 13.0899 19.3853 11.2323C19.2364 9.37465 18.4328 7.63024 17.1176 6.30996Z" stroke="white" stroke-width="1.25036" stroke-linecap="round" stroke-linejoin="round"/>
</svg>
