<svg width="18" height="18" viewBox="0 0 18 18" fill="none" xmlns="http://www.w3.org/2000/svg">
<path d="M14.1427 5.78571C15.5629 5.78571 16.7141 4.63444 16.7141 3.21428C16.7141 1.79412 15.5629 0.642853 14.1427 0.642853C12.7226 0.642853 11.5713 1.79412 11.5713 3.21428C11.5713 4.63444 12.7226 5.78571 14.1427 5.78571Z" stroke="white" stroke-width="1.28571" stroke-linecap="round" stroke-linejoin="round"/>
<path d="M14.143 8.35712C10.9287 8.35712 10.9287 17.3571 10.9287 17.3571H17.3573C17.3573 17.3571 17.3573 8.35712 14.143 8.35712Z" stroke="white" stroke-width="1.28571" stroke-linecap="round" stroke-linejoin="round"/>
<path d="M3.85658 5.78571C5.27675 5.78571 6.42801 4.63444 6.42801 3.21428C6.42801 1.79412 5.27675 0.642853 3.85658 0.642853C2.43642 0.642853 1.28516 1.79412 1.28516 3.21428C1.28516 4.63444 2.43642 5.78571 3.85658 5.78571Z" stroke="white" stroke-width="1.28571" stroke-linecap="round" stroke-linejoin="round"/>
<path d="M3.85686 17.3571C0.642578 17.3571 0.642578 8.35712 0.642578 8.35712H7.07115C7.07115 8.35712 7.07115 17.3571 3.85686 17.3571Z" stroke="white" stroke-width="1.28571" stroke-linecap="round" stroke-linejoin="round"/>
</svg>
