<svg width="13" height="13" viewBox="0 0 13 13" fill="none" xmlns="http://www.w3.org/2000/svg">
<path d="M6.03418 4.31738V6.88881" stroke="white" stroke-width="0.932143" stroke-linecap="round" stroke-linejoin="round"/>
<path d="M6.03502 9.88937C6.27171 9.88937 6.46359 9.69749 6.46359 9.4608C6.46359 9.2241 6.27171 9.03223 6.03502 9.03223C5.79832 9.03223 5.60645 9.2241 5.60645 9.4608C5.60645 9.69749 5.79832 9.88937 6.03502 9.88937Z" stroke="white" stroke-width="0.932143" stroke-linecap="round" stroke-linejoin="round"/>
<path d="M6.79751 0.93214C6.72558 0.791739 6.6163 0.673911 6.4817 0.591634C6.3471 0.509356 6.19241 0.46582 6.03466 0.46582C5.8769 0.46582 5.72221 0.509356 5.58761 0.591634C5.45301 0.673911 5.34373 0.791739 5.2718 0.93214L0.557512 10.3607C0.491761 10.4912 0.460456 10.6363 0.466571 10.7823C0.472687 10.9283 0.516019 11.0703 0.592452 11.1948C0.668886 11.3193 0.775883 11.4223 0.903283 11.4938C1.03068 11.5653 1.17426 11.6031 1.32037 11.6036H10.7489C10.8951 11.6031 11.0386 11.5653 11.166 11.4938C11.2934 11.4223 11.4004 11.3193 11.4769 11.1948C11.5533 11.0703 11.5966 10.9283 11.6027 10.7823C11.6089 10.6363 11.5776 10.4912 11.5118 10.3607L6.79751 0.93214Z" stroke="white" stroke-width="0.932143" stroke-linecap="round" stroke-linejoin="round"/>
</svg>
